# xmcd
#
# Track frame offsets: 
#        150
#        13281
#        35551
#        55285
#        72894
#        87815
#        109345
#        128459
#        157705
#        178326
#
# Disc length: 2554 seconds
#
# Revision: 0
# Processed by: cddbd v1.5.2PL0 Copyright (c) Steve Scherf et al.
# Submitted via: ExactAudioCopyFreeDBPlugin 1.0
#
DISCID=7f09f80a
DTITLE=Anthony Leon and the Chain - Hell to Pay
DYEAR=2013
DGENRE=Country
TTITLE0=Road to Ruin
TTITLE1=Alcohol and Drugs
TTITLE2=Wildfire
TTITLE3=Down in Lonely
TTITLE4=The Devil's at Reds
TTITLE5=How the West was Won
TTITLE6=The Sinner
TTITLE7=Death and Texas
TTITLE8=Aim to Please
TTITLE9=I saw the Light
EXTD=
EXTT0=
EXTT1=
EXTT2=
EXTT3=
EXTT4=
EXTT5=
EXTT6=
EXTT7=
EXTT8=
EXTT9=
PLAYORDER=
